<?xml version="1.0" encoding="utf-8"?>
<!-- Generator: Adobe Illustrator 18.1.1, SVG Export Plug-In . SVG Version: 6.00 Build 0)  -->
<!DOCTYPE svg PUBLIC "-//W3C//DTD SVG 1.1//EN" "http://www.w3.org/Graphics/SVG/1.1/DTD/svg11.dtd">
<svg version="1.1" id="Calque_2" xmlns="http://www.w3.org/2000/svg" xmlns:xlink="http://www.w3.org/1999/xlink" x="0px" y="0px"
	 viewBox="0 0 115.2 214.9" enable-background="new 0 0 115.2 214.9" xml:space="preserve">
<g>
	<circle fill="#404550" cx="32" cy="152.6" r="12.7"/>
	<circle fill="#404550" cx="49.8" cy="194.9" r="20"/>
	<circle fill="#404550" cx="61.8" cy="168.9" r="4.3"/>
	<circle fill="#404550" cx="15.8" cy="138.9" r="8.1"/>
	<circle fill="#404550" cx="79.8" cy="179.9" r="10.3"/>
	<circle fill="#404550" cx="44.8" cy="118.9" r="8.4"/>
	<circle fill="#404550" cx="20.8" cy="174.9" r="11.6"/>
	<circle fill="#404550" cx="79.8" cy="142.9" r="8.8"/>
	<circle fill="#E25C5A" cx="66.2" cy="20.1" r="4"/>
	<circle fill="#E25C5A" cx="44.2" cy="55.1" r="5.6"/>
	<circle fill="#E25C5A" cx="1.2" cy="138.1" r="1.2"/>
	<circle fill="#E25C5A" cx="59.2" cy="96.1" r="5.8"/>
	<circle fill="#E25C5A" cx="90.2" cy="149.1" r="1.5"/>
	<circle fill="#E25C5A" cx="69.2" cy="37.1" r="4.6"/>
	<circle fill="#E25C5A" cx="80.2" cy="113.1" r="1.9"/>
	<circle fill="#E25C5A" cx="28.2" cy="97.1" r="0.8"/>
	<circle fill="#E25C5A" cx="45.2" cy="147.1" r="10.7"/>
	<circle fill="#E25C5A" cx="37.2" cy="105.1" r="5.3"/>
	<circle fill="#E25C5A" cx="65.2" cy="2.1" r="2.1"/>
	<circle fill="#E25C5A" cx="53.2" cy="64.1" r="2.5"/>
	<circle fill="#E25C5A" cx="32.2" cy="32.1" r="4.2"/>
	<circle fill="#E25C5A" cx="67.2" cy="58.1" r="3.4"/>
	<circle fill="#E25C5A" cx="80.2" cy="92.1" r="7.5"/>
	<circle fill="#E25C5A" cx="57.2" cy="78.1" r="4.8"/>
	<circle fill="#E25C5A" cx="34.2" cy="71.1" r="6.5"/>
	<circle fill="#21A8A0" cx="75.2" cy="128.1" r="6.1"/>
	<circle fill="#21A8A0" cx="40.2" cy="171.1" r="3.9"/>
	<circle fill="#21A8A0" cx="9.2" cy="155.1" r="8"/>
	<circle fill="#21A8A0" cx="98.2" cy="163.1" r="7.6"/>
	<circle fill="#21A8A0" cx="65.2" cy="153.1" r="6.5"/>
	<circle fill="#21A8A0" cx="49.2" cy="100.1" r="9.2"/>
	<circle fill="#21A8A0" cx="41.2" cy="134.1" r="4.4"/>
	<circle fill="#21A8A0" cx="93.2" cy="119.1" r="7.1"/>
	<circle fill="#21A8A0" cx="80.2" cy="160.1" r="7.4"/>
	<circle fill="#59B68D" cx="22.2" cy="108.1" r="7.5"/>
	<circle fill="#59B68D" cx="61.2" cy="131.1" r="4.8"/>
	<circle fill="#59B68D" cx="75.2" cy="78.1" r="4.1"/>
	<circle fill="#59B68D" cx="49.2" cy="83.1" r="5.3"/>
	<circle fill="#59B68D" cx="9.2" cy="119.1" r="6.4"/>
	<circle fill="#59B68D" cx="51.2" cy="166.1" r="6.4"/>
	<circle fill="#59B68D" cx="90.2" cy="104.1" r="2.2"/>
	<circle fill="#59B68D" cx="78.2" cy="104.1" r="2.2"/>
	<circle fill="#59B68D" cx="50.2" cy="165.1" r="5"/>
	<circle fill="#59B68D" cx="30.2" cy="125.1" r="2.8"/>
	<circle fill="#59B68D" cx="104.2" cy="138.1" r="11"/>
	<circle fill="#59B68D" cx="50.2" cy="109.1" r="5.4"/>
	<circle fill="#59B68D" cx="66.2" cy="113.1" r="8.6"/>
	<text transform="matrix(1 0 0 1 24.5186 169.8121)" fill="#FFFFFF" font-family="'Avenir-Black'" font-size="101.8491">S</text>
</g>
</svg>
