<?xml version="1.0" encoding="utf-8"?>
<!-- Generator: Adobe Illustrator 18.1.1, SVG Export Plug-In . SVG Version: 6.00 Build 0)  -->
<!DOCTYPE svg PUBLIC "-//W3C//DTD SVG 1.1//EN" "http://www.w3.org/Graphics/SVG/1.1/DTD/svg11.dtd">
<svg version="1.1" xmlns="http://www.w3.org/2000/svg" xmlns:xlink="http://www.w3.org/1999/xlink" x="0px" y="0px"
	 viewBox="0 0 960 560" enable-background="new 0 0 960 560" xml:space="preserve">
<g id="Calque_2">
	<circle fill="#404550" cx="506.6" cy="305.8" r="12.7"/>
	<circle fill="#404550" cx="524.4" cy="348.1" r="20"/>
	<circle fill="#404550" cx="536.4" cy="322.1" r="4.3"/>
	<circle fill="#404550" cx="490.4" cy="292.1" r="8.1"/>
	<circle fill="#404550" cx="554.4" cy="333.1" r="10.3"/>
	<circle fill="#404550" cx="519.4" cy="272.1" r="8.4"/>
	<circle fill="#404550" cx="495.4" cy="328.1" r="11.6"/>
	<circle fill="#404550" cx="554.4" cy="296.1" r="8.8"/>
	<circle fill="#E25C5A" cx="540.8" cy="173.3" r="4"/>
	<circle fill="#E25C5A" cx="518.8" cy="208.3" r="5.6"/>
	<circle fill="#E25C5A" cx="475.8" cy="291.3" r="1.2"/>
	<circle fill="#E25C5A" cx="533.8" cy="249.3" r="5.8"/>
	<circle fill="#E25C5A" cx="564.8" cy="302.3" r="1.5"/>
	<circle fill="#E25C5A" cx="543.8" cy="190.3" r="4.6"/>
	<circle fill="#E25C5A" cx="554.8" cy="266.3" r="1.9"/>
	<circle fill="#E25C5A" cx="502.8" cy="250.3" r="0.8"/>
	<circle fill="#E25C5A" cx="519.8" cy="300.3" r="10.7"/>
	<circle fill="#E25C5A" cx="511.8" cy="258.3" r="5.3"/>
	<circle fill="#E25C5A" cx="539.8" cy="155.3" r="2.1"/>
	<circle fill="#E25C5A" cx="527.8" cy="217.3" r="2.5"/>
	<circle fill="#E25C5A" cx="506.8" cy="185.3" r="4.2"/>
	<circle fill="#E25C5A" cx="541.8" cy="211.3" r="3.4"/>
	<circle fill="#E25C5A" cx="554.8" cy="245.3" r="7.5"/>
	<circle fill="#E25C5A" cx="531.8" cy="231.3" r="4.8"/>
	<circle fill="#E25C5A" cx="508.8" cy="224.3" r="6.5"/>
	<circle fill="#21A8A0" cx="549.8" cy="281.3" r="6.1"/>
	<circle fill="#21A8A0" cx="514.8" cy="324.3" r="3.9"/>
	<circle fill="#21A8A0" cx="483.8" cy="308.3" r="8"/>
	<circle fill="#21A8A0" cx="572.8" cy="316.3" r="7.6"/>
	<circle fill="#21A8A0" cx="539.8" cy="306.3" r="6.5"/>
	<circle fill="#21A8A0" cx="523.8" cy="253.3" r="9.2"/>
	<circle fill="#21A8A0" cx="515.8" cy="287.3" r="4.4"/>
	<circle fill="#21A8A0" cx="567.8" cy="272.3" r="7.1"/>
	<circle fill="#21A8A0" cx="554.8" cy="313.3" r="7.4"/>
	<circle fill="#59B68D" cx="496.8" cy="261.3" r="7.5"/>
	<circle fill="#59B68D" cx="535.8" cy="284.3" r="4.8"/>
	<circle fill="#59B68D" cx="549.8" cy="231.3" r="4.1"/>
	<circle fill="#59B68D" cx="523.8" cy="236.3" r="5.3"/>
	<circle fill="#59B68D" cx="483.8" cy="272.3" r="6.4"/>
	<circle fill="#59B68D" cx="525.8" cy="319.3" r="6.4"/>
	<circle fill="#59B68D" cx="564.8" cy="257.3" r="2.2"/>
	<circle fill="#59B68D" cx="552.8" cy="257.3" r="2.2"/>
	<circle fill="#59B68D" cx="524.8" cy="318.3" r="5"/>
	<circle fill="#59B68D" cx="504.8" cy="278.3" r="2.8"/>
	<circle fill="#59B68D" cx="578.8" cy="291.3" r="11"/>
	<circle fill="#59B68D" cx="524.8" cy="262.3" r="5.4"/>
	<circle fill="#59B68D" cx="540.8" cy="266.3" r="8.6"/>
	<text transform="matrix(1 0 0 1 499.0991 322.9981)" fill="#FFFFFF" font-family="'Avenir-Black'" font-size="101.8491">S</text>
</g>
<g id="Calque_3" display="none">
	<path display="inline" fill="none" stroke="#404550" stroke-miterlimit="10" d="M427.8,492.7c-23.6-13.5-25.6-27.1-26.2-50.3
		c-0.6-23.2,31.8-40,26.2-77.4"/>
	<path display="inline" fill="none" stroke="#404550" stroke-miterlimit="10" d="M470.8,492.7c16.6-10.3,32.1-24.5,26.3-47.7
		s-36.8-43.7-36.8-132.2"/>
	<path display="inline" fill="none" stroke="#404550" stroke-miterlimit="10" d="M439.6,460.5c-7.6-9.7-1.7-25.2,5-48.4
		c6.7-23.2-18.8-82.1-29.6-82"/>
	<path display="inline" fill="none" stroke="#404550" stroke-miterlimit="10" d="M454,479.8c21.1-5.2,27.9-11.6,16.8-37.4
		c-11.1-25.8-30.9-63.7-20.2-83.2"/>
</g>
</svg>
